<svg xmlns="http://www.w3.org/2000/svg" viewBox="0 0 32 32">
  <rect width="32" height="32" rx="5" fill="#002FA7"/>
  <!-- Robot head -->
  <rect x="6" y="8" width="20" height="16" rx="3" fill="#001560"/>
  <!-- Eyes -->
  <rect x="8" y="11" width="6" height="5" rx="2" fill="white"/>
  <rect x="18" y="11" width="6" height="5" rx="2" fill="white"/>
  <circle cx="11" cy="13.5" r="2.2" fill="#001560"/>
  <circle cx="21" cy="13.5" r="2.2" fill="#001560"/>
  <circle cx="9.5" cy="12" r="1" fill="white"/>
  <circle cx="19.5" cy="12" r="1" fill="white"/>
  <!-- Mouth -->
  <rect x="9" y="19" width="14" height="3" rx="1.5" fill="#001060"/>
  <rect x="9.5" y="19.5" width="3" height="2" rx="0.8" fill="white" opacity="0.4"/>
  <rect x="14" y="19.5" width="3" height="2" rx="0.8" fill="white" opacity="0.4"/>
  <rect x="18.5" y="19.5" width="3" height="2" rx="0.8" fill="white" opacity="0.4"/>
  <!-- Antenna -->
  <rect x="14.5" y="4" width="3" height="5" rx="1" fill="#4488FF"/>
  <circle cx="16" cy="3.5" r="2.5" fill="#7AB0FF"/>
  <!-- Ears -->
  <rect x="3" y="12" width="3.5" height="8" rx="1.5" fill="#001560"/>
  <rect x="25.5" y="12" width="3.5" height="8" rx="1.5" fill="#001560"/>
</svg>
